<svg xmlns="http://www.w3.org/2000/svg" viewBox="0 0 840.38 163.38">
  <path d="M.41 157.23h143.87c16.61 0 30.08-13.47 30.08-30.08v-23.51H.41v53.59zM.41 59.46h173.95V5.88H30.49C13.88 5.88.41 19.35.41 35.96v23.5zM293.17 49.48h-52.53c-5.71 0-10.21 4.59-10.21 10.21 0 5.62 4.49 10.21 10.21 10.21h21.65c18.45 0 33.53 14.99 33.53 33.54s-15.08 33.63-33.53 33.63h-52.52v-23.43h52.52c5.62 0 10.11-4.59 10.11-10.21 0-5.62-4.49-10.21-10.11-10.21h-21.65c-18.54 0-33.53-15.08-33.53-33.54 0-18.54 14.99-33.53 33.53-33.53h5.34v-.09h47.18v23.42zM447.68 26.09h-4.22c-12.52 0-22.08 4.17-28.68 12.6-.96 1.22-1.83 2.54-2.65 3.92V26.09h-23.42v110.95H412.13V75.77c.23-8.27 2.59-14.68 7.17-19.18 4.78-4.74 11.56-7.08 20.38-7.08h8V26.09zM834.83 48.42c-2.74-7.24-6.91-12.76-12.43-16.6-5.56-3.84-12.47-5.72-20.77-5.72h-.99c-8.17 0-15.05 1.88-20.57 5.72s-9.69 9.36-12.47 16.6c-.36.96-.63 2.02-.96 3.01-.3-.99-.56-2.05-.93-3.01-2.68-7.24-6.78-12.76-12.23-16.6-4.43-3.08-9.72-4.93-15.97-5.46-1.39-.17-2.78-.26-4.23-.26h-1.45c-.3 0-.59 0-.86.03-2.25 0-4.4.2-6.45.56-.46.03-.93.13-1.39.2-.56.13-1.09.23-1.65.36-3.77.99-7.14 2.48-10.12 4.56-3.84 2.68-6.94 6.15-9.39 10.48-.69 1.19-1.32 2.41-1.89 3.7V26.44h-21.56v110.63h23.45V72.76c0-8.04 2.12-14.35 6.41-18.88 4.3-4.56 9.99-6.81 17.1-6.81 2.98 0 5.65.4 8.07 1.26 3.14 1.03 5.79 2.78 7.97 5.26 3.8 4.37 5.72 10.42 5.72 18.19v65.31h23.35V72.76c0-8.04 2.12-14.35 6.31-18.88 4.23-4.56 9.89-6.81 17.03-6.81 6.85 0 12.2 2.15 16.1 6.51 3.9 4.37 5.82 10.42 5.82 18.19v65.31H839V75.14c0-10.55-1.39-19.45-4.17-26.72zM553.03 77.44c0-2.18-.1-4.33-.34-6.41-.66-6.92-2.48-13.44-5.45-19.62-3.87-8.03-9.65-14.58-17.36-19.64-7.75-5.06-17.36-7.57-28.94-7.57-8.9 0-16.73 1.55-23.44 4.67-6.72 3.14-12.28 7.33-16.67 12.56-4.39 5.26-7.67 11.2-9.85 17.79-1.3 3.87-2.22 7.8-2.75 11.81-1.43 10.44.4 23.41.4 23.41.52 3.11 1.32 6.21 2.35 9.25 2.18 6.58 5.45 12.5 9.85 17.75 4.39 5.26 10.05 9.49 16.97 12.67 6.91 3.21 15.04 4.79 24.33 4.79 8.67 0 16.37-1.46 23.15-4.39 6.82-2.92 12.41-7.11 16.87-12.56 4.46-5.46 7.4-11.84 8.89-19.15h-21.75c-1.07 4.39-4.01 8.2-8.8 11.48-4.76 3.23-10.91 4.89-18.35 4.89-7.43 0-13.55-1.66-18.35-4.89-4.8-3.28-8.31-7.71-10.55-13.37a39.72 39.72 0 0 1-2.01-6.48h81.81V77.44zm-82.35-6.41c.56-3.31 1.39-6.35 2.55-9.13 2.24-5.6 5.68-9.96 10.35-13.16 4.66-3.21 10.45-4.8 17.36-4.8 6.65 0 12.17 1.42 16.57 4.31 4.4 2.87 7.7 6.91 9.98 12.17 1.36 3.17 2.31 6.71 2.84 10.62h-59.65zM646.58 26.1v15.52c-.19-.32-.38-.64-.58-.97-2.73-4.21-8.16-8.47-13.29-11.4-11.51-6.99-35.87-6.77-47.29 1.25-16.37 9.38-24.26 31.49-23.4 51.06-.86 19.57 7.04 41.68 23.4 51.06 11.4 8.02 35.8 8.25 47.29 1.24 5.15-2.93 10.58-7.21 13.32-11.43.21-.33.41-.66.59-.99v15.63h20.11V26.1h-20.15zm-8.75 82.81c-10.62 12.78-34.47 12.51-44.99-.25-7.29-7.97-9.25-20.4-8.49-31.78.57-8.96 3.5-16.81 8.49-22.45 10.52-12.75 34.37-13.03 44.99-.24 6 6.46 8.97 17.42 8.62 27.41.33 9.98-2.64 20.86-8.62 27.31zM378.02 49.49V26.07h-57.2v.02h-16.89v23.4h16.89v56.2c0 17.33 14.05 31.38 31.38 31.38h25.81v-23.43H350.7c-.94 0-1.87-.19-2.72-.56-2.25-1.03-3.75-3.28-3.75-5.9v-57.7h33.79z" />
  <path d="M320.81 5.88h23.42v20.2h-23.42z" />
</svg>
